<svg id="svg" version="1.1" xmlns="http://www.w3.org/2000/svg" xmlns:xlink="http://www.w3.org/1999/xlink" width="400" height="400" viewBox="0, 0, 400,400"><g id="svgg"><path id="path0" d="M163.149 134.668 C 163.050 134.829,160.867 139.531,158.296 145.117 C 155.726 150.703,152.389 157.910,150.881 161.133 C 149.373 164.355,146.466 170.596,144.422 175.000 C 142.377 179.404,138.294 188.193,135.349 194.531 C 123.632 219.743,115.072 238.208,114.022 240.534 L 112.918 242.981 123.310 242.877 L 133.702 242.773 136.788 236.133 C 138.485 232.480,140.350 228.452,140.933 227.181 C 141.516 225.910,143.061 222.570,144.368 219.759 L 146.743 214.648 170.380 214.453 L 194.017 214.258 190.466 206.547 L 186.914 198.836 170.426 198.832 L 153.939 198.828 155.048 196.387 C 155.659 195.044,157.058 192.042,158.157 189.716 C 159.257 187.390,160.156 185.419,160.156 185.335 C 160.156 185.252,161.088 183.201,162.228 180.776 C 163.367 178.351,166.926 170.522,170.136 163.379 C 176.589 149.019,176.134 149.754,177.138 152.051 C 177.538 152.964,178.890 155.861,180.143 158.489 C 181.396 161.117,182.422 163.343,182.422 163.436 C 182.422 163.529,183.325 165.509,184.428 167.837 C 185.532 170.166,187.355 174.092,188.480 176.563 C 195.035 190.956,196.559 194.284,198.052 197.461 C 198.960 199.395,200.889 203.613,202.338 206.836 C 204.573 211.807,212.050 228.149,217.394 239.746 L 218.879 242.969 258.072 242.969 L 297.266 242.969 297.266 235.156 L 297.266 227.344 265.205 227.344 L 233.145 227.344 229.818 220.410 C 224.800 209.951,223.093 206.367,221.590 203.137 C 220.838 201.519,219.430 198.525,218.461 196.484 C 215.305 189.833,213.672 186.316,213.672 186.169 C 213.672 186.090,212.639 183.852,211.377 181.196 C 210.115 178.540,208.551 175.225,207.901 173.828 C 207.252 172.432,205.277 168.213,203.513 164.453 C 201.749 160.693,199.116 155.068,197.661 151.953 C 196.206 148.838,194.026 144.212,192.815 141.674 C 191.605 139.135,190.362 136.455,190.054 135.717 L 189.493 134.375 176.410 134.375 C 169.215 134.375,163.247 134.507,163.149 134.668 M220.313 159.508 L 220.313 184.640 226.906 198.082 C 230.533 205.475,234.570 213.779,235.877 216.535 C 237.263 219.455,238.424 221.443,238.659 221.297 C 238.933 221.128,239.063 207.120,239.063 177.711 L 239.063 134.375 229.688 134.375 L 220.313 134.375 220.313 159.508 " stroke="none" fill="#201d1d" fill-rule="evenodd"></path><path id="path1" d="M0.000 200.000 L 0.000 400.000 200.000 400.000 L 400.000 400.000 400.000 200.000 L 400.000 0.000 200.000 0.000 L 0.000 0.000 0.000 200.000 M190.923 137.109 C 191.676 138.721,193.039 141.621,193.951 143.555 C 196.256 148.440,209.962 177.678,211.622 181.250 C 212.371 182.861,213.997 186.377,215.236 189.063 C 217.269 193.469,220.200 199.687,226.743 213.477 C 227.967 216.055,229.942 220.142,231.133 222.559 L 233.298 226.953 265.477 226.953 L 297.656 226.953 297.656 235.156 L 297.656 243.359 258.193 243.359 L 218.731 243.359 218.391 242.480 C 218.204 241.997,217.220 239.844,216.204 237.695 C 215.189 235.547,213.695 232.295,212.884 230.469 C 212.074 228.643,210.799 225.830,210.052 224.219 C 209.305 222.607,207.248 218.125,205.481 214.258 C 195.602 192.638,191.589 183.896,187.104 174.219 C 184.365 168.311,181.204 161.455,180.078 158.984 C 176.355 150.810,176.125 150.424,175.651 151.563 C 175.113 152.854,164.522 176.354,162.007 181.836 C 160.923 184.199,158.744 188.924,157.166 192.335 C 155.588 195.746,154.297 198.601,154.297 198.679 C 154.297 198.756,161.707 198.865,170.763 198.922 L 187.230 199.023 190.825 206.836 L 194.421 214.648 170.601 214.844 L 146.781 215.039 144.627 219.727 C 143.442 222.305,140.563 228.518,138.228 233.533 C 135.894 238.548,133.984 242.811,133.984 243.006 C 133.984 243.208,129.478 243.359,123.438 243.359 C 115.259 243.359,112.891 243.250,112.893 242.871 C 112.896 242.414,114.217 239.501,123.130 220.313 C 125.076 216.123,127.675 210.498,128.906 207.813 C 130.138 205.127,133.693 197.480,136.808 190.820 C 139.923 184.160,142.917 177.744,143.460 176.563 C 144.004 175.381,145.095 173.026,145.883 171.329 C 146.672 169.632,148.429 165.853,149.788 162.930 C 151.146 160.008,153.968 153.926,156.058 149.414 C 158.148 144.902,160.596 139.629,161.498 137.695 L 163.139 134.180 176.346 134.180 L 189.553 134.180 190.923 137.109 M239.063 177.782 C 239.063 214.024,238.973 221.484,238.540 221.484 C 238.252 221.484,236.989 219.331,235.733 216.699 C 234.477 214.067,230.493 205.886,226.881 198.519 L 220.313 185.124 220.313 159.652 L 220.314 134.180 229.688 134.129 L 239.063 134.079 239.063 177.782 " stroke="none" fill="#fbfbfb" fill-rule="evenodd"></path><path id="path2" d="M148.535 214.740 C 149.556 214.821,151.226 214.821,152.246 214.740 C 153.267 214.660,152.432 214.594,150.391 214.594 C 148.350 214.594,147.515 214.660,148.535 214.740 M159.668 214.742 C 161.011 214.819,163.208 214.819,164.551 214.742 C 165.894 214.666,164.795 214.604,162.109 214.604 C 159.424 214.604,158.325 214.666,159.668 214.742 M176.880 214.745 C 180.169 214.811,185.443 214.811,188.598 214.745 C 191.754 214.680,189.063 214.626,182.617 214.626 C 176.172 214.626,173.590 214.680,176.880 214.745 M234.277 227.236 C 234.976 227.322,236.118 227.322,236.816 227.236 C 237.515 227.149,236.943 227.078,235.547 227.078 C 234.150 227.078,233.579 227.149,234.277 227.236 M285.254 227.222 C 285.630 227.321,286.245 227.321,286.621 227.222 C 286.997 227.124,286.689 227.044,285.938 227.044 C 285.186 227.044,284.878 227.124,285.254 227.222 M293.457 227.233 C 294.048 227.322,295.015 227.322,295.605 227.233 C 296.196 227.143,295.713 227.070,294.531 227.070 C 293.350 227.070,292.866 227.143,293.457 227.233 M297.183 234.978 L 297.296 242.965 257.926 243.067 L 218.555 243.170 258.008 243.167 L 297.461 243.164 297.567 235.380 C 297.625 231.098,297.538 227.459,297.372 227.293 C 297.206 227.127,297.121 230.585,297.183 234.978 M123.242 242.969 L 112.695 243.183 123.121 243.271 C 129.748 243.327,133.636 243.217,133.789 242.969 C 133.922 242.754,133.976 242.618,133.910 242.666 C 133.843 242.715,129.043 242.851,123.242 242.969 " stroke="none" fill="#848484" fill-rule="evenodd"></path><path id="path3" d="M154.791 214.733 C 155.384 214.823,156.263 214.821,156.744 214.728 C 157.224 214.635,156.738 214.562,155.664 214.565 C 154.590 214.568,154.197 214.644,154.791 214.733 M167.878 214.736 C 168.580 214.823,169.635 214.821,170.222 214.732 C 170.809 214.643,170.234 214.572,168.945 214.574 C 167.656 214.576,167.176 214.649,167.878 214.736 M242.503 227.245 C 245.147 227.313,249.366 227.313,251.878 227.245 C 254.390 227.177,252.227 227.121,247.070 227.122 C 241.914 227.122,239.859 227.177,242.503 227.245 M265.918 227.245 C 269.409 227.310,275.122 227.310,278.613 227.245 C 282.104 227.181,279.248 227.128,272.266 227.128 C 265.283 227.128,262.427 227.181,265.918 227.245 M288.379 227.238 C 289.185 227.322,290.503 227.322,291.309 227.238 C 292.114 227.153,291.455 227.084,289.844 227.084 C 288.232 227.084,287.573 227.153,288.379 227.238 " stroke="none" fill="#8c8c8c" fill-rule="evenodd"></path><path id="path4" d="M169.634 134.265 C 170.228 134.354,171.107 134.352,171.587 134.259 C 172.068 134.167,171.582 134.093,170.508 134.096 C 169.434 134.099,169.041 134.175,169.634 134.265 M183.315 134.273 C 184.558 134.351,186.492 134.351,187.612 134.272 C 188.732 134.193,187.715 134.130,185.352 134.130 C 182.988 134.131,182.072 134.196,183.315 134.273 M228.425 134.267 C 229.127 134.354,230.182 134.353,230.769 134.263 C 231.356 134.174,230.781 134.103,229.492 134.105 C 228.203 134.108,227.723 134.181,228.425 134.267 M234.668 134.260 C 235.151 134.353,235.942 134.353,236.426 134.260 C 236.909 134.167,236.514 134.091,235.547 134.091 C 234.580 134.091,234.185 134.167,234.668 134.260 M257.134 227.233 C 257.728 227.323,258.607 227.321,259.087 227.228 C 259.568 227.135,259.082 227.062,258.008 227.065 C 256.934 227.068,256.541 227.144,257.134 227.233 " stroke="none" fill="#9e9fa0" fill-rule="evenodd"></path></g></svg>